<svg width="48" height="50" viewBox="0 0 48 50" fill="none" xmlns="http://www.w3.org/2000/svg">
  <path d="M38.8396 30.3206C38.072 30.2487 37.3806 29.966 36.7826 29.5844C35.0355 28.4695 33.2789 27.0836 31.211 26.9451L10.7638 25.5762C9.16425 25.4691 7.56122 26.3019 5.96065 26.2107C4.216 26.1113 2.42822 24.7516 1.36609 23.5791C1.13979 23.3292 0.954271 23.0402 0.810992 22.7351C0.702924 22.505 0.606689 22.2818 0.521684 22.0654C-1.00364 18.1818 2.19773 8.41642 5.28095 5.60527C8.54834 3.26127 18.5104 -0.0611265 22.531 0.0106669C23.7358 -0.0527469 24.7598 0.170155 25.6257 0.58405C28.5985 2.00508 34.8192 2.59204 37.3846 4.65992C37.5546 4.797 37.613 4.83807 37.7862 4.97119C39.5646 6.3383 39.4893 8.14829 38.5681 10.3733C38.2786 11.0726 36.4702 13.1706 38.8485 12.7151C44.2641 11.6778 46.5411 13.8417 47.1239 15.5124C47.9874 17.2394 48.1512 18.635 47.8807 19.7513C47.0848 23.0357 43.0787 28.2088 40.2153 30.0039C39.7527 30.2939 39.3833 30.3715 38.8396 30.3206Z" fill="#163300"/>
  <path d="M30.3088 32.5604L29.2727 43.888C28.9922 46.9549 26.4202 49.3024 23.3406 49.3024C20.4773 49.3024 18.0191 47.2653 17.4873 44.4519L15.2339 32.5303C14.9497 31.0272 14.0942 29.6927 12.847 28.807L9.88301 26.7021C8.28329 25.5661 8.16306 23.2345 9.63742 21.94L10.2089 21.4381C10.974 20.7664 12.1085 20.7332 12.9115 21.3591L13.7774 22.034C15.2797 23.2049 17.353 21.601 16.597 19.8527C16.1419 18.8003 16.7499 17.5925 17.8663 17.3312L19.179 17.024C20.3933 16.7398 21.6557 17.2453 22.3382 18.2891L24.5918 21.7358C25.9183 23.7646 28.7626 24.0872 30.5098 22.4072L31.156 21.7859C32.2994 20.6865 34.1086 20.6918 35.2455 21.798C36.4724 22.9917 36.4245 24.9769 35.1416 26.1102L32.3116 28.61C31.1646 29.6232 30.4482 31.0363 30.3088 32.5604Z" fill="#A0EF6A"/>
</svg>
